<mxfile host="app.diagrams.net" modified="2023-11-25T00:56:25.455Z" agent="Mozilla/5.0 (Windows NT 10.0; Win64; x64) AppleWebKit/537.36 (KHTML, like Gecko) Chrome/119.0.0.0 Safari/537.36 Edg/119.0.0.0" etag="kD0v5vsbSYAcOxu_hIvI" version="22.1.3" type="device">
  <diagram name="Page-1" id="fc2ac565-0d4e-3f0d-88b0-a54af1634ed7">
    <mxGraphModel dx="792" dy="429" grid="1" gridSize="10" guides="1" tooltips="1" connect="0" arrows="1" fold="1" page="1" pageScale="1.5" pageWidth="1169" pageHeight="827" background="none" math="0" shadow="0">
      <root>
        <mxCell id="0" style=";html=1;" />
        <mxCell id="1" style=";html=1;" parent="0" />
        <mxCell id="80" value="描述：" style="align=center;strokeColor=#000000;html=1;" parent="1" vertex="1">
          <mxGeometry x="297" y="150" width="83" height="20" as="geometry" />
        </mxCell>
        <mxCell id="85" value="执行者：" style="align=center;strokeColor=#000000;html=1;" parent="1" vertex="1">
          <mxGeometry x="297" y="170" width="83" height="20" as="geometry" />
        </mxCell>
        <mxCell id="90" value="前置条件：" style="align=center;strokeColor=#000000;html=1;" parent="1" vertex="1">
          <mxGeometry x="297" y="190" width="83" height="20" as="geometry" />
        </mxCell>
        <mxCell id="2" value="用例编号：" style="strokeWidth=1;fontStyle=0;html=1;" parent="1" vertex="1">
          <mxGeometry x="297" y="130" width="83" height="20" as="geometry" />
        </mxCell>
        <mxCell id="4" value="UC08" style="strokeWidth=1;fontStyle=0;html=1;" parent="1" vertex="1">
          <mxGeometry x="380" y="130" width="170" height="20" as="geometry" />
        </mxCell>
        <mxCell id="67c90442a009f359-278" value="用例名称：" style="strokeWidth=1;fontStyle=0;html=1;" parent="1" vertex="1">
          <mxGeometry x="550" y="130" width="90" height="20" as="geometry" />
        </mxCell>
        <mxCell id="67c90442a009f359-279" value="朗读功能" style="strokeWidth=1;fontStyle=0;html=1;" parent="1" vertex="1">
          <mxGeometry x="640" y="130" width="190" height="20" as="geometry" />
        </mxCell>
        <mxCell id="67c90442a009f359-292" value="用户根据自己的需求将指定的文本转换为语音输出" style="align=left;strokeColor=#000000;html=1;" parent="1" vertex="1">
          <mxGeometry x="380" y="150" width="450" height="20" as="geometry" />
        </mxCell>
        <mxCell id="67c90442a009f359-293" value="用户" style="align=left;strokeColor=#000000;html=1;" parent="1" vertex="1">
          <mxGeometry x="380" y="170" width="450" height="20" as="geometry" />
        </mxCell>
        <mxCell id="67c90442a009f359-294" value="用户需要选中对应文本" style="align=left;strokeColor=#000000;html=1;" parent="1" vertex="1">
          <mxGeometry x="380" y="190" width="450" height="20" as="geometry" />
        </mxCell>
        <mxCell id="UDtA4cweCyDbGWM8MkmW-100" value="&lt;font style=&quot;font-size: 15px;&quot;&gt;‘朗读功能’用例规约&lt;/font&gt;" style="text;strokeColor=none;fillColor=none;html=1;fontSize=24;fontStyle=1;verticalAlign=middle;align=center;" parent="1" vertex="1">
          <mxGeometry x="510" y="80" width="110" height="40" as="geometry" />
        </mxCell>
        <mxCell id="UDtA4cweCyDbGWM8MkmW-102" value="备选流：" style="align=center;strokeColor=#000000;html=1;" parent="1" vertex="1">
          <mxGeometry x="297" y="320" width="83" height="110" as="geometry" />
        </mxCell>
        <mxCell id="UDtA4cweCyDbGWM8MkmW-103" value="扩展点：" style="align=center;strokeColor=#000000;html=1;" parent="1" vertex="1">
          <mxGeometry x="297" y="430" width="83" height="20" as="geometry" />
        </mxCell>
        <mxCell id="UDtA4cweCyDbGWM8MkmW-104" value="5a.合成器发现语音库内无选中的文本&lt;br&gt;进入6a&lt;br&gt;6a.系统显示文本‘未能正确识别文本内容’" style="align=left;strokeColor=#000000;html=1;" parent="1" vertex="1">
          <mxGeometry x="380" y="320" width="450" height="110" as="geometry" />
        </mxCell>
        <mxCell id="UDtA4cweCyDbGWM8MkmW-105" value="待定" style="align=left;strokeColor=#000000;html=1;" parent="1" vertex="1">
          <mxGeometry x="380" y="430" width="450" height="20" as="geometry" />
        </mxCell>
        <mxCell id="UDtA4cweCyDbGWM8MkmW-107" value="后置条件：" style="align=center;strokeColor=#000000;html=1;" parent="1" vertex="1">
          <mxGeometry x="297" y="210" width="83" height="20" as="geometry" />
        </mxCell>
        <mxCell id="UDtA4cweCyDbGWM8MkmW-108" value="基本流：" style="align=center;strokeColor=#000000;html=1;" parent="1" vertex="1">
          <mxGeometry x="297" y="230" width="83" height="90" as="geometry" />
        </mxCell>
        <mxCell id="UDtA4cweCyDbGWM8MkmW-109" value="用户的操作被系统记录并实现" style="align=left;strokeColor=#000000;html=1;" parent="1" vertex="1">
          <mxGeometry x="380" y="210" width="450" height="20" as="geometry" />
        </mxCell>
        <mxCell id="UDtA4cweCyDbGWM8MkmW-110" value="1.用户打开一个note&lt;br&gt;2.用户选中需要朗读的文本&lt;br&gt;3.系统显示朗读选项&lt;br&gt;4.用户点击朗读选项&lt;br&gt;5.系统将朗读的要求传递给合成器&lt;br&gt;6.系统将语音输出" style="align=left;strokeColor=#000000;html=1;" parent="1" vertex="1">
          <mxGeometry x="380" y="230" width="450" height="90" as="geometry" />
        </mxCell>
        <mxCell id="UDtA4cweCyDbGWM8MkmW-111" value="非功能需求" style="align=center;strokeColor=#000000;html=1;" parent="1" vertex="1">
          <mxGeometry x="297" y="450" width="83" height="20" as="geometry" />
        </mxCell>
        <mxCell id="UDtA4cweCyDbGWM8MkmW-112" value="系统响应用户时间不超过一秒" style="align=left;strokeColor=#000000;html=1;" parent="1" vertex="1">
          <mxGeometry x="380" y="450" width="450" height="20" as="geometry" />
        </mxCell>
        <mxCell id="UDtA4cweCyDbGWM8MkmW-113" value="业务规则" style="align=center;strokeColor=#000000;html=1;" parent="1" vertex="1">
          <mxGeometry x="297" y="470" width="83" height="20" as="geometry" />
        </mxCell>
        <mxCell id="UDtA4cweCyDbGWM8MkmW-114" value="用户输入的需要为speech库内中的内容" style="align=left;strokeColor=#000000;html=1;" parent="1" vertex="1">
          <mxGeometry x="380" y="470" width="450" height="20" as="geometry" />
        </mxCell>
      </root>
    </mxGraphModel>
  </diagram>
</mxfile>
